/* XPM */
static char *_669548803836[] = {
/* columns rows colors chars-per-pixel */
"106 106 42 1 ",
"  c #010000",
". c #0B0604",
"X c #130A06",
"o c #170C08",
"O c #1A0E09",
"+ c #1E100B",
"@ c #22120C",
"# c #29160F",
"$ c #2B1710",
"% c #331C13",
"& c #391F15",
"* c #3E2117",
"= c #3F2218",
"- c #402217",
"; c #43241A",
": c #48271C",
"> c #4C291D",
", c #512C1F",
"< c #542D21",
"1 c #582F22",
"2 c #573021",
"3 c #5A3124",
"4 c #623526",
"5 c #673927",
"6 c #693A27",
"7 c #653728",
"8 c #6B3B2A",
"9 c #723E2C",
"0 c #74402D",
"q c #7C442F",
"w c #7E4530",
"e c #80462F",
"r c #814731",
"t c #854932",
"y c #8E4E35",
"u c #904F37",
"i c #915037",
"p c #945239",
"a c #99563D",
"s c #9C583F",
"d c #9E5A41",
"f c #A05B42",
/* pixels */
";;=;;;;=;=;=;;=;;;;;=;;;;=;==;=;=:=:===:--;;;;;=;;=;;;;;=;;;;;=;;-;-;;;;=;;=;;;=;=;;=;;=--;;;==;=;;=;;=;;;",
";;;;-:;;;;;;;;;;;;;;;;;;;;::;;;;:=;;:=:=;;;;;;;;;;;;;;;;;;;;;;;;;;;;;;;;;;;;;;;;;;;;;;;;-:;;;;;;;;;;;;;;;=",
";;;;::::::::::::>;::;;>;;;:;::;::=;:==::::::;::>>;;:;;:;;;;;:;;::::>;:;::;;:::::;;>;;;::>::>;;>>:;::;;:;;;",
";;;;,tyippppppppppppappppudpppaapdppddudappppppppppaaiaaaaapappapppppapappapppppappapdppppippappapyuy2;;;;",
";;;3;<yyadddddddffffffffdfdddfddddddddddffffffffddfffffffffdddffffffffffffffffffffffdddfffffffffdiyt2;3;;=",
";;;y3;,yuupppppppiippippppipppiippppyuppiiiiiiiippiiipiiipiipipppipippiipppppipipipippppiippiiiiuyy<;2y;;;",
";;;yy3;2yyyyyyuuyyyuyyyyuyyyuyyyuyyyyyyyyuyyuuyyuyyyuyyyuuyyyyuyyyyyuyyyyyyyyyyyuyyyyyuuyyyyiuyyyt2;3yy;;;",
";;;ipy3;2tyyyyyy;X%tyyyyuyyyuyyuyyyyuyyyyyyyuuyyuyyyuyyyyyyyyyyuyyyyyyyyyyyyyyuyyyyyyyw$X>yyyyyyy<;3yyw;;;",
"-:;pfiy3;2yyyyy3   -yyyyyyyyyyuyuyyyyyyyuyyyyyyuuyyyyyyyyyyyyyyyyyyyuyyyuyyyyyyyyyyyyy%   8yyyyy2;2yyqr;;;",
"-;;pfpyy3=,yyyy,   %yyyyyyyyyyyyyyyyyyyyyyyyyyyyyyyyyyyuyyyyyyyyyyyyyyyyyyyyyyyuyyyyyy@   3yyyt2;3yyy0e;;;",
";;;pfpyyy3;2yyyeX .9yyyyyyyyyyyyyyyyuyyyyyyyyyyyyyyyyyyyuyyyyyuyyyuuyyyyyyyyyyuyyyyyyy4. Otuuy,:2yyyt0w;;*",
";;;pfpyyyy3;,yyyt5eyyyyyuyuyyyyuyyuyyyyyyyuyyuyuyyyyuyyuyyyyyyyyyyyuyyyyyyyyuyuuyyyuyyyq6tyut,:2yyyyy0r;;;",
"-;;pfpyyyyy3-,yyuyyuyyyyyyyyuuyuyyyyyyuuyyuuyyuuyyuyuuuuyuuuyyiyuuuuuuuuyuuupuuuyyuyuyuuuyyy,-2yyyyuy0q;;;",
";;:pfpyyyyyy3:,ye990000900000090000900000000090900099990900000009990999999999999000009000ty2;3yyyyyyt0r;;;",
";;;ifpyt,2tyy3;,yeeqeeqqeqeqqqeqwwwwwwqqqeeeeeeeeeeqeeeeeqqqqqwweqeeeeeeeeee9r9wwwqqeqqqty,;3yyt,2yyy0w;;;",
";;;pfpy@  #yyy3:-::::::::::::,12<<<3111<2,,3,,11,22,3,1,3,1122<2111,1,11,2,,<>>::::::::::;;3uuyO  $yy0r;;-",
";;;pdpt    tyry;;22,2,2,2,22>-;-============;;==---*&=&&==&=&&=:======&=&==;=><<2,,,2,,,,:;yii0   .yy0q;;;",
";;;pdpyo  +yy0y:>yyyyyyyyypay2-#XXXXXXXXXXXoXXXXXXXXXXooXoXoooXXXXXXXXXXXX#;<yuuyyiyyuiyu,:ufiyX  @yt0r;;;",
"-;;pdpyq**wyy0q:,yyyyyyiyyifsi,-=:::;;;::=%;<3>>::::;:::;::;&&;11::::::::&;<ydduyyyyyyyyy,:afiy0&*ryy0r;;-",
";;;pdpyyyyyyy0w>,yyyy0,qyyiiffi,;<3333331:;37933131133333333:;3983333313<;<ydduuyyy53tuyy>>afiyyyyyyy0r;;;",
";;;pfpyyyyyyy0r>,yyy6   0iyyidsi<=<133333>;18973333333333333:;399333333<;<yddyyyyy*  +yyy>>ifiiyyyyyt0q;;;",
";;;pfpyyyyyyy0r:,yyy*   ;yyyyiffd:;<33131>;18933333333333333:;39833331<;<udduyyyyy.   0yy,:afiuuyyyyy0r;;;",
";;;pfpyyyyyyy0r>,yyy,   3iyyyyifdt<;<3333>;17933333333333333::3993333<;<yddyyyyyyy+  .tyy,>ifiyyyyyyy0r;;;",
"=;:pfpyyyyyyt0e>,yyyy:#,yyiyyyyiddd<;<333>;18973333133333333:;399<33<;<ydduyyyyyyyq%$9uyy,:afiyuyyyyy0q;;*",
";;;pfpyyyyyyy0w:>yyyyyyyyyyyyyyydddu<;<13>;17933333333313333:;39833<;<ydsiyyyyyyyyyyyyyyy>>pfpyyyyyyy0q;;;",
";;;pfpyyyiyyt0w>,yyyyyyyyiyyyyyytrddu<;<3>;18973333333333333:;39932;<yddiyyyyyyyyyyiyyyyy>>ifiyyyyyyt0r;;;",
";;;pfpyyyyyyy0e:,iyyyyyiyyyyyyyydyuddd<;<>;18973333333333333:;398<;,ydduyyyyyyyyyyyyyyyre,>pfiiyyyyyy0r;;;",
";;;pfpyyyyyyy0t>>y0eyyyyyyyyyyiyryyuddu<;:;17933333333333333:;394;2yddyyyyiyyyiyyyyyyyw0t,>pfpuyiyyyy0r;;;",
"=;;pdpyyiyiyy0r>:yr0ryyyyyyyyyyyyyuutfdu;==<70333<3333333333:;37;,yfsiyyyyyyyyyyyyyyyw0qt::afiyyyyyyy0w;;-",
";;;pdpiyyyyyy0e2->te0tyyyiyyyiyyyyuutuddd;=<7073333333313333:;<;2ydsiiyyyyyyyyyyyyyyr0qt>:,pfiyyyyyyy0r;;;",
";;;pfpyyyyyyt0w3;->tq0tyyyyyyyyyyyuttuufdd<;3033333333333333:;;<ydsiyyyyyyiyyyyiyyye0qr>--4pfiyyyyyyy0q;;;",
";;;pfpyyyyyyy0w3-@;>tw0ryyyyyyyyyyuuuyuuddd<:733333333313333:=:dfsiyyyyyyyyyyyyyyyw0qt>;@:3pfiyyyyyyy9w;;;",
";;;pfpyyyyyyy0r3=X@=>tw9wuuuyuyyyyyyyyyyisfu,:,333333333333<;<udduuyyyyyuyyyyyyuyw0qt>;+X-2afiuyyyyyy0w;;*",
";;;pfpyiyyyyt0r3:oX@;,tr9wyuyyyyuyyyyyuyyuffu,;,3333333333<=<udduyyyyyyyyyyyyyyyr0qt>;@XO:3pfiyyyyyyy0r;;;",
";;;pfpyyyyyyy9w3:>oX@=>tw9ruyyyyyyyyyyyyyyusfu,:<33333333<;<ydduyyyyyyyyyyyyyyyw0wr>-@XO,>4pfpiyyyyyt0r;;;",
";;;pfpyyyyyyy0t1>3<oX@=<tw9wyyyyyyyyyyyyyuuusfu,;<333333,=<udduyyyyyyyyyyyyyyyw9wr>;@XO,3>2afiuuyyyyy0r;;;",
";;;ifpyyyyyuy9w3:33>oo+&,tw9dwdyyyyyyyyyyyuyuffu<;<1131<=<udduyyyyyyyyyyyyyyyr0wt>;@XO,33>2pfiyyyyyyt0r;;;",
";;;ifpyyyyyyu9t3>333,oX+;>tw9rwtyyyyyyyyyyyyuusfu<;<33<;<ydduyyyyyyuyuyyuyyyr0wt>;#XO<333:3pfiyyyyyyy0w;;;",
";;;pfpuyyyyyt9t3:3333,oX+;,t880duyyyyyyyyyyuyyusfu,;<<;<udduyyyyyyyyyyyyyyyr0wr>;@XO<3333>3pfiuyyyyyy9q;;;",
";;;pfpyyyyyyy9t1:33333:oX@;,dw9wyyyyyyuyyyyyyyyudfu<:;<ydduyyyyyyyuyyyyyyyr0wr>;OX+3<3333>3afpyyyyyyy0r;;-",
";;;pfpyyyyyyy9t1>33333<&oo#;<rw9ruuuyyyuyyyyyyyyiddu<<udduyyyyyuyuyyyyyyuw9wr,=OXO6733333:3afpuyyyyyy0q;;;",
";;;pfpyyuyyyy9t3:33333<;;o.@=<w99ryyyyyyyyyyyyyyyyauwydduyyyyyyyyyyyyuuuw9wt,=+XO19733333:3pfpyyiyyyy0r;;;",
";;;pfpyyyyyyy9r3>33333<;<3oX+=>dr9ryyyyyyyyyyuyyyyyrydduuyyyyyyyyyyyyyyt9wr>=@XO;407333<3>3afiyyyyyyy0r;;-",
";;;ifpyyyyyyt9r3:33333<;<77oX+;>tr9ryuyyyyyuyyyyyyrydduyyyyuyyyyyuyyyyw9wr,;@XO=>40733333>3pfiyyyyyyy0w;;;",
";;;pfayyyyyyu9r3:33333<;<70<oo+;>tw9ruyyyyyuyyyyytydduuyyyuyuyyyyyyyyt9wr,&@XO>;>70733333;3pfpuyyyyyt0q;;;",
";;;pfpyyyyyyu9r3:33333<;>707<oo+=<tw9ryyyyyyyyyytudduyuyyyyyyyyyyyyyr9wt,=@oO,3=>40733333>2afpyyyyyyy0r;;;",
";;;pfpyyyytuy9r3>33333<;>7073>oo+-<tr9ruyyyyyyytudduyyyuyyyyyyyyyuut9wt>;+XO>33=>70733333:3pfpyyyyyyy0r;;=",
";;;pfiyyuyuuu9w3:33333<;<70733>oX+=>tr9tuyyyyytuddiyyyyyyyyyyyuyyur99t>=+XO,331:>70733333>3pfpyyyyyyy0r;;;",
";;;ifpyyyyyyy0w3>33333<;<70733<>OX+;>tr9ryyyyyusdiyyyyyyyyyyyyyyyr0wr>;OXO<1331=>40733332:4pfiyyyyyyt0w;;;",
";;;pfpyyyyyyy0r3:33333<;>7073333>OX@;>tw0eyytisfiuyyyyyyyyyyyyiyr9wr>;@XO,33331=>70733333>3pfiiyyyyyy0w;;;",
";;;pfpyyuyyyy0r3:33333<;<70333333,OX@;>twqytysfiyyyyyiyyyiyyyyyr9wr>;@XO>331333=>70733333>3pfiyyyyyyy0w;;;",
";;;pfpyyyyyyy0e3:33333<;<707333333>OX@;>tyeisfiyyyyyyyyyyyyyyyt0wt>;OXO,3333331::40733322>4pfiyyyyyyy0r;;;",
";;;pdpyyyyyyy0w2:33333<;>7073333333>OX@*,0iffiiyyyyyyyyyyyyyyt0wt>;+XO:33333331=>70733333:3pfpiyyyyyy0r;;-",
";;;pfpyuyyyyy0r2:33333<;<79733333333,O#;<ysfiyyyyyyyyyyyyyyyr00tr>;#O,333333333=>70733333>3pfpyyyyyyy0r;;;",
";;;pfpyyyyyyy0r3:33333<;>707333333333>;<ydfiyyyyuyyyyuyyyyut0wytyy<=:333333333<:>30732332>4pfiyyyyyyy0r;;;",
";;;ifpyyyyyyy0e3:33333<;>70733333333<;,ydfiyyyyyyyyyyyyyyyt00ttyddu,:<333333333=>70733333>3pfiyyyyyyy8w;;;",
";;;pfpyyyyyyy0w2>33333<;,7973333333,;<ydfiiyyyyyyyyyyyyyyt0qttyyuddu>;<33333333;>70733333>3pfpyyyyyyy0w;;;",
";;;pfpyyyyyyy0e3:33333<;,707333333<;<yddiyyyyyyyyyyyyyyyr0wttuyyyuddu<;<3333331;>70733333:3pfpyyyyyyy0r;;*",
";;-ifpyyyiyyy0e3>33333<;,70733333<;<udduyyyyyyyyyuuyyyut0qttuyyyyyuddu<;,333331=>70733333>3pfpyyyyyyt0r;;;",
"-;:pfpyyyyyyy0t3:33333<;,7933333<;<ydduuyyyyyyiyyyyyyyt9qttuyyyyyyyuddu<;,33333:>70733333>3pfpiyyyyyy0r;;;",
";;;pfpiyyuyyy0e2:33333<;,797333<;<ydduuuyyyuyuyyyyyyut9qttyyyyyyyyyyuddu,=,3331=>70733333>3afpyyyyyyt0r;;-",
";;;pfpuyyyyyt0e3:33333<;,79733<;<ydduuyyyyyyyyyyyyyyt0qtyyyuyyyyyyyytuddd>;<331=>70732332>3pfiyyyyyyy0w;;;",
";;;pfpyyyyyyy0t2:33333<;>797<<;<yddpuyyyyyyyyyyyyyut9qttyyyyyyyuyyyuuytddt<;133=>30733333>3pfpyiyyyyy9q;;;",
";;;pfiyyyyyut0t3:33333<;<797<;<yddiyyyyyyuyyyyyyyyt9qttyyyyyyyyyyyyyyywdddd<=,1:,70331333>3pfiyyyyyyy0r;;;",
"-;;pfpyyyyyyy0e2>33333<;,793;<ydfuuyyyyyyyyyyyyuyt0qtey0wuuyuyyyyyyyyyyyysdi2;,;>70733333:3afiyuyyyyy0r;;;",
";;;pfpyyiyyyt0t3>22333<;,77;<ydduyyyyyyyyyyyyyyyt9qe>>te0wuyyyyyyyyyuyyyyisfi,;;>40733333:3pfpyyyyyyy0r;;;",
";;;pfpyyyyyyy0e3>33333<;,3;<udduyyyyyyyyyyuyyyut0qt,--,tw0wuyyyuyyyyyyyyyyisdi,;>40733333:3pfpyyyyyyy0r;;;",
";;;pfpyyyyyyy0e2>33333<;>;<ydduuyyyyuyyyyyyyyut00t>-@@->tw9ryyyyyuyyyuyyyyyysdi<;<0733313:3afpyyyyyyt0w;;;",
";;;pfpyyyyyyy0t3:23333<;:<ydduuyyyuyyyyyyyyyyt0qt>;@XX@-:tw9wuuuyyyyyyyyyyyyisfi<;7733332>3pfpyyyyyyy0w;;=",
";;;pfpyiyyyyt0e3>33333>;<ydfuuyyyyyyyuyyyyyyt0qe>;+XOOX@;>tw9wyuyyyyyyyyyyiyyyssi<;331333>3pfiyyyyyyy0r;;;",
";;;pfpyyyyyyy0e3>3333<;<ydfuyyuyyyyyyyyyyyyt0qe>-+Xo>,OX@=,tw9wuuyyyyyuyyyyyyyysdy<;<3333>3afpyyyyyyt0r;;;",
";;;pfpyyyyyyy0e3>233<;<ydduuyyyyyyyyyyyyyyy9qt,-@XX>31,OX@=>tw9wyyyyyyyyyyyyyyyiddi<;<333:3pfpyyyyyyy0r;;;",
"-;;pfpyyiyyyy0q3<11<;<ydduyyyyyyyyyyyyuuuy99r>=@XO>1333>OX@=>rw9wyyyyyyyyyyiyyyyysfu,:,33>2afiuuyyyyy0w;;-",
";;;pfpyyyyyyy0w3:1<;<ydfpyyuyyuyyyyyyuuut9rr>:@XO>113333,oo@;>tw0wyyyyyyyyyyyyyyyussu,;,3:3afiyuyyyiy0r;;;",
";;;pfpyyyyyyy0e3:<;<ydfpyyyyyyyyyuyyyyyt9wr>;#Xo>33333333,oXO;>tw0wyyyyyyyyyiyyyyyusfu,:<:3ifiuyyyyyt9w;;;",
";;;pfpyyyyyyy0r3::>ydfpyyyyyyyyyyyyyyye99t<=+Xo:3133333333,OX+;>rw0wyiyyyyyyyyyyyyuusfu,;:3afiyyyyyyy0r;;;",
";;;pdpyyiyyyy0r,=<udfpyyyyuyyyyyyyuyuy99t>=+Xo>333333333333>oo+;>tw0wyyyyyyyyyyyyyyyussu,:,pfiuuyyyyy0r;;-",
";;;pfpyyyyyyy0r>:ydfpyyyyyyyyuyyyyyyt9rt<=+Xo743333333333333=oX#;>tw0qyyyyyyyyyyyyyuyusft>,pfiyyyyyyt0r;;;",
"-;;pfpyyyyyyy0w:>pfpyyyyyyyyyuyyuyuu99t>=+Xo<933333333333333:=oX#;>tw0qyyyyyyyyyyyyyyyysu,:pfiuyyyyyy9e;;;",
";;;pfpyyyyyyy0w>,ipyyyuyyyyyyyyyuut99y>-@Xo:8973333333333333:;,+X+=>tw0wiyyyiyyyyyyyyyyyy,,pfiyyyyyyy0q;;;",
";;;pfpyyyyyyy0e>,uuyyyyyyyuyyyyyut9qt>*@XX&<8973333333333333>;37+X@-<tr9quyyyyyyuyyyyyyyy>>pfiyyyyyyy0w;;;",
";;;pfpyyyyyyy0r:>uyyyq5euyyyyyyyt9et>-+XO*:18933333333333333;;394OX+=>tr9qyyyyyyyyy96yyyy,>pfpyyyyyuy0r;;;",
";;;pfpyyyyyyt0r>,yyy9. .0yyyuyyt9qe>-@XO>>-18943333333333333>;399<oX+=>te9qyyyyuyu:  #yyy>>pfpiyyyyyt0e;;;",
"-;;pfpyyyyyyy0r>>yyy&   >uyyyut0qt,;@XO:1>;18933333333133333:;3981<OX@=,tr9qyuyyyu    qyy,>pfiyyyyuyy9e;;;",
";;;pfpiyyyuyt0r:,uyy:   2yyyyt0qt>=@Xo>31>:17933<33333333333;;39933<oX@;>tr9eyyyyyO  .tyy>:afiyyyyyyy0r;;-",
";;;pfpyyyyyyy0r>>yyyy&O-yuyyt0qt>;+Xo>131>=18943333313333333>;308331<OX+;>tw9qyyyy9#O4yyy>>ifpiyyuyyt0w;;;",
";;;pfpiyqqyyy0e>,yyyyyyyyyyt0qt>;+Xo>1333>-18943333333333333;;3993333<OX+;,te99uyyyuyyyyy<>afiyy0eyyy0e;;;",
";;;pfiy;  ;yy0e:,uyuyyyyyyyqet>-@Xo:33313<:18933333333333333>;39833311,OX+;>ye9qyyyyyyyyy>>pfiy*  >yy0r;;;",
";;;pfpt    ty9y:,yyuyyyyyyuut>-@XX:111111::18943333333333333:;2093<3333<OX@-,tytuuyuyuyuy>>idie    yy0w;;;",
"-;;pfpy.  .yyty;->::>:>>>>:::;;-;;:::>::::::::::;;;=;:::::::;;:>::::;::;--;;;:,::::::>::>;;yipt   Xuy0r;;;",
";;;pfpy4XX5yyy,;:,,>>,,,>,>,,,4443444443343444437331334334434344314443444444,,,:,,,>,>>,>;;2yyy3XX8yt0r;;;",
";;;pfiyyyyyyt<;3yuaaaaaapsaasaspaaaaaaaaaapdpdpdddddddddaasssaspddaaduddaapssaaaaaaaaaaaay3;,yyuyyyyy9r;;;",
";;;pfpyyyuyy,;3yusddffffffffffffsffsffffffffddfddddddddddfffddddffffddfffffffsfffsfffffffsy2-,yiyyyyy9r;;;",
";;;pfpyyyut,:3yyuyuuyyyiyyyyuyyyuuuuuyuuuyuuyyuuuuuyyyyuyyuyuuuuuyuuyyyyyyyyuyuuyuuuyuuyyyuy3;,yyyyyt9e;;=",
";;;pfpyyut,;2uyy:O&tyyyyyyyyyyuyyyyyyyyyyyyyyyuyuuyyyyyyyyyyuyuyyyyyuyyyyyyyuyyyyuyyyyt%O,yyy3-2yyyyy0e;;;",
"=;:pfiyyy,:2yuy4  .;yyyyuyyyyyyyyyyyyyyyyyyyyyyyyyyyuyyyyyyyyyyyyyyyyyyyyyyyyyyyyyyyuy%   9yyy3;,yyyu0q;;;",
";;;payyy,;3yyyy,   %yyyyyyyyyyyyyyyyyyyiyyyyyyyyyyyuyyyyyyyuyyyyyyyyyyyyyyyyyyyyyyyyyu#   3yyyy3:2yyytq;;-",
";;;iyyy,;3yyyyyw.  8yyyyyyyyyyuyyyyyyyyyyyiyyyyyyyyyyyyyyyyyyyyyyyyyyyyyyyyyyyyyyyyyyy3  Xtyyyyy3;,yyyy;;;",
";;;yyt2;3yyyyyyyr4wuyyyyyyyyyyyyyyyyyyyyyyyyyyyyyyuuyyyyyyyyyuyuyyyyyyyuyuyyyyyyyuuuyyy07tyyyyyyy3;,yyy;;;",
";;;yy2-3yyyyyyyyyyyiyyyyyiyyyyyuyiyyyyuiyyyyyyiyyuyuyyyuyyyyyyyuyyyuyuyuyyyyyyuyyyuuyyyyyyyyyyyuyy3;,yy;;;",
"-;;y,;3yyttttttttttttttttttttttttttttttttttttttttttttttrttttttttttttttttttttttttuttttuttttttttttyyy3-2y-;;",
";;;,;3yyw00000009900w999000000000000000000000000000000990000000099999w990000000099999999000000000tyy3;2;;*",
";;;:3yttttwttttttwwttrrrrrtrrrrrtrrttwtwtwtwwttwrrrrtrttrrrwrrrrttrrttwttrrrrrrrrrrttrrrrrtrrtrreeyty2:;;;",
";;;;;;-;;;;;;;;-;;;;;;:=;;;;:;;;;;;;;;;;;:;;;;;;;;;;;:;;;;:;:;:=;;;;;;;;;;;;;;:;;;;;;;;;;;;;;;;;;;;;-;;;;;",
";;;;;;;;;;;;;;;;;;;;;;;:;;;;;;;;;;;;;;;;;;;;;;;;;;;;;:;;;;;;;;;;;;;;;;;;;;;;;;;;;;;;;;;;;;;;;;;;;;;;;;;;;;",
";=;=;=;;**-;;-=;;&;==;;=;=;;=;=;=;=;=;;===;;=;;==;;====;;=;=;=;;;=;=;;=;;;;=;==;=;;;=;=;==;;&;;==;;=;=;-;*"
};
