/* XPM */
static char *_669822976737[] = {
/* columns rows colors chars-per-pixel */
"80 82 105 2 ",
"   c #764016",
".  c #7A4416",
"X  c #7E4A15",
"o  c #774219",
"O  c #79441B",
"+  c #7D4B23",
"@  c #7F4E28",
"#  c #814D15",
"$  c #855215",
"%  c #895614",
"&  c #8D5B14",
"*  c #905F14",
"=  c #946314",
"-  c #986714",
";  c #9B6C13",
":  c #9F7013",
">  c #A17313",
",  c #A67913",
"<  c #AA7D13",
"1  c #804E27",
"2  c #804F28",
"3  c #82512B",
"4  c #855631",
"5  c #885B37",
"6  c #8A5D39",
"7  c #8D603E",
"8  c #8D6241",
"9  c #926746",
"0  c #956D4E",
"q  c #977052",
"w  c #987153",
"e  c #9C7759",
"r  c #9F7A5E",
"t  c #A17B5F",
"y  c #A17D61",
"u  c #AE8212",
"i  c #B18512",
"p  c #B68C12",
"a  c #B98F11",
"s  c #BC9311",
"d  c #C09711",
"f  c #C49C11",
"g  c #D2AD0F",
"h  c #D6B20F",
"j  c #D9B50F",
"k  c #DDBA0F",
"l  c #C7A010",
"z  c #CAA310",
"x  c #CFA910",
"c  c #D2AD10",
"v  c #D6B110",
"b  c #D9B510",
"n  c #DCB910",
"m  c #E1BE0F",
"M  c #E0BD10",
"N  c #E5C30F",
"B  c #E8C60F",
"V  c #ECCC0E",
"C  c #F0CF0E",
"Z  c #EFD00E",
"A  c #F4D50E",
"S  c #F7D80E",
"D  c #A38065",
"F  c #A6846A",
"G  c #A8886F",
"H  c #AB8B73",
"J  c #AC8F78",
"K  c #AE9179",
"L  c #B1947E",
"P  c #B49780",
"I  c #B59983",
"U  c #B69D89",
"Y  c #B99E8A",
"T  c #BBA18D",
"R  c #BDA592",
"E  c #BFAA9A",
"W  c #C1AA97",
"Q  c #C3AE9C",
"!  c #C5B2A3",
"~  c #C8B5A5",
"^  c #C7B6A8",
"/  c #CDBAAC",
"(  c #CCBCB1",
")  c #CFC1B4",
"_  c #D2C2B6",
"`  c #D4C5BB",
"'  c #D5C8BE",
"]  c #D6CBC1",
"[  c #DACEC3",
"{  c #DCD3CB",
"}  c #DDD6D0",
"|  c #E1D6CE",
" . c #E2DAD5",
".. c #E3DEDA",
"X. c #E6E1DD",
"o. c #E9E2DE",
"O. c #E7E4E1",
"+. c #EAE6E2",
"@. c #ECE8E5",
"#. c #EEEEEE",
"$. c #F1EEEC",
"%. c #F2F1EF",
"&. c #F4F4F4",
"*. c #F9F8F7",
"=. c #FCFCFC",
/* pixels */
"=.=.#.&.=.=.#.&.=.*.#.=.=.&.#.=.=.#.#.=.=.#.#.=.=.#.&.=.*.] R H r 0 q t D J T ~ Q / | o. .@.=.=.#.&.=.*.$.&.=.&.#.*.=.*.#.*.=.&.#.=.=.#.#.=.=.#.#.=.=.#.#.=.=.#.",
"=.=.#.&.=.=.#.&.=.*.#.*.=.&.#.*.=.&.#.=.=.&.#.=.=.#.{ L 4                           .   . O 1 4 6 w y H K Y _ +.#.*.=.&.#.*.=.&.#.*.=.&.#.=.=.#.&.=.*.#.&.=.=.#.",
"#.#.=.=.#.#.=.&.#.&.=.&.#.*.=.&.#.=.=.#.#.=.=.#.[ r O                                   .                     + y [ #.&.=.&.#.*.=.&.#.=.=.#.#.=.=.#.&.=.*.#.#.=.",
"&.&.=.*.&.&.=.&.#.*.=.&.#.*.=.&.#.=.=.&.#.=.#.H o         $ , d x j j g l < & .       # i a i > : = % # o           r +.=.&.%.*.=.&.#.*.=.&.&.*.=.#.&.=.*.&.&.=.",
"=.=.#.#.=.=.#.&.=.&.#.*.=.&.#.=.=.#.#.=.*.' @         > h A S S S S S S S S A B a $     . i C S S S S A C f * o       @ ( *.=.&.#.*.=.#.#.=.=.#.#.=.=.#.#.=.=.#.",
"=.*.&.&.=.*.&.&.=.&.#.*.=.&.#.*.*.&.&.&.E + . .   > N S S S S S S S S S S S S S S S l &     # g S S S S S S S x &         T *.&.&.*.=.&.#.=.*.&.&.=.*.&.&.=.*.&.",
"#.#.=.*.#.#.=.*.#.&.=.&.#.*.=.&.#.*.*.G o o   X x A S S S S S S S S S S S S S S S S S A d #   . < A S S S S S S V i o o     P *.=.&.#.=.=.#.#.=.=.#.#.=.*.#.#.=.",
"&.&.*.*.&.&.*.*.&.*.*.&.&.*.*.&.&.%.D       : Z S S S S S S S S S S S S S S S S S S S S S m *     - C S S S S S S S f o       P *.&.&.*.*.&.&.*.*.&.&.*.*.&.&.*.",
"=.=.#.&.=.=.#.&.=.*.#.*.=.&.#.=.&.D .     i S S S S S S S S S S S S S S S S S S S S S S S S S ,     & V S S S S S S S v X o     U *.=.#.#.=.=.#.#.=.=.#.&.=.=.#.",
"*.*.&.&.&.&.*.&.&.&.&.*.&.*.&.&.L   . . p S S S S S S S S N l u - & & ; < z B S S S S S S S S S a o   * V S S S S S S S c X       ` *.&.&.*.&.*.*.&.&.*.&.&.*.*.",
"#.#.=.=.#.&.=.*.#.*.=.&.#.*.=.R       s Z S S S S S Z k > .                 # : h S S S S S S S S d o   * A S A A S S S S l .     3 } =.=.#.#.=.=.#.&.=.=.#.#.=.",
"*.*.&.*.*.&.&.*.*.&.&.&.*.&.] O     i S S S S S S V u .           # % % X         : m S S S S S A A a     < A S S S S S S A p       q &.&.*.=.&.&.*.&.&.&.*.*.&.",
"=.=.#.&.=.=.#.&.=.&.#.*.=.O.4     : Z S S S S S h X . .     X d N A S S A m a & .   # f S S S S S S S ,     d S S S S S S S S -       E #.=.=.#.#.=.=.#.&.=.=.#.",
"&.&.*.&.&.*.*.&.&.&.*.*.&.G     X V S S S Z S l X       . u Z S S S S S S S S A l $     i C S S S S S A =   # M A S S S S S S N $     3 O.&.&.*.=.&.&.*.&.&.&.*.",
"#.#.=.=.#.#.=.*.#.*.=.&.) o   o g S S S S S z X       X x S S S S S S S S S S S S V <     < A S S S S S B # o * A S S S S S S S l       J #.#.=.=.#.#.=.*.#.&.=.",
"=.=.#.&.=.=.#.&.=.&.#.#.7     i S S S S S h .     . X N S S S S S S S S S S S S S S S d .   < S S S S S S f   o a S S S S S S S A -     o  .=.#.&.=.*.&.&.*.=.#.",
"=.=.#.#.=.=.#.&.=.*.#.P     % V S S S S N X       X N S S S S S S S S S S S S S S S S S z     d S S S S S S :   . m S S S S S S S M o     y =.$.$.=.=.#.&.=.=.#.",
"#.&.=.*.#.*.=.*.%.&.$.@     l S S S S Z &         g S S S S S S S S S S S S S S S S S S S a     v S S S S S m #   , S S S S S S S S >     1 ..=.=.#.&.=.*.#.&.=.",
"#.#.=.=.#.#.=.*.#.*.I     = A S S S S i         p S S S S S S S S S A A S A S S S S S S S S >   $ V S S S S S i   . M S S S S S S S M       P =.=.#.%.=.*.#.&.=.",
"=.=.#.&.=.*.#.&.=.@.2     c S S S S k .       = Z S S S S Z = X # # # # # # # # # # f S S S V $   < S S S S S C $   > S S S S S S S A :     4 @.#.=.=.#.&.=.=.#.",
"=.=.#.#.=.=.#.&.=.W .   = S S S S A =       . N S S S S S Z X                       p S S S S g   o b S S S S S d   . m S S S S S S S c       / &.=.&.%.&.=.=.#.",
"#.#.=.=.#.&.=.*.@.5     z S S S S g         i S S S S S S Z X .         $ $ $ $     p S S S S S :   - S S S S S C $ o < S S S S S S S S &     F =.#.&.=.*.#.#.=.",
"#.&.=.=.#.#.=.*.` .   % Z S S S S =       X B S S S S S S Z X .       - A S A S ;   a S S S S S M o   b S S S S S <   # C S S S S S S S s     @ $.%.&.=.*.#.&.=.",
"=.=.#.&.=.=.#.&.F     a S S S S j         i S S S S S S S S X         ; S S S S >   p S S S S S S >   : S S S S S B O o d S S S S S S S B o     ! =.=.#.&.=.=.#.",
"=.*.&.&.=.*.#.#.3     N S S S S :       X N S S S S S S S Z X         ; S S S S :   a S S S S S S b     M S S S S S -   * S S S S S S S S =     F *.&.&.&.=.*.&.",
"#.#.=.=.#.#.=.`     = S S S S B X       : S S S S S S S S Z X X       ; S S S S :   a S S S S S S A &   < S S S S S z   # m S S S S S S S a     @ #.&.=.*.#.#.=.",
"&.&.*.*.&.&.*.G     a S S S S s         g S S S S S S S S Z X         ; S S S S :   p S S S S S S S d   # A S S S S V   o f S S S S S S S b o     } &.*.&.&.&.*.",
"=.=.#.&.=.=.#.5     k S S S S *     . X Z S S S S S S S S Z X .       ; S S S S :   a S S S S S S S m     v S S S S S -   : S S S S S S S C # o o ) =.#.&.=.=.#.",
"*.&.*.&.&.*.} O   % A S S S V .       u S S S S S S S S S Z X .       ; S S S S >   a S S S S S S S S &   < S S S S A d   # C S S S S S S A -     P &.*.&.&.*.*.",
"#.#.=.=.#.#./     : S S S S z         h S S S S S S S S S Z X         ; S S S S :   a S S S S S S S S i   & S S S S S M     M S S S S S S S p     0 &.=.*.#.#.=.",
"*.*.&.*.*.*.J o   s S S S S u       . Z S S S S S S S S S Z X         ; S S S S :   a S S S S S S S S x o . m S S S S C #   d S S S S S S S z     4 #.&.&.*.*.&.",
"=.=.#.#.=.=.0 o   v S S S S *       = S S S S S S S A S S Z X .       ; S S S S :   a S S S S S S S S B o O v S S S S S :   , S S S S S S S k     + #.#.&.=.=.#.",
"&.*.*.&.&.&.4     Z S S S Z X       u S S S S S S S S S S C #         ; S S S S >   p S S S S S S S S S &   p S S S S S i   = S S S S S S S Z O o o { =.&.&.&.=.",
"#.#.=.=.#. .O   X S S S S m .       l S S S S S S S S S S C #         ; S S S S >   p S S S S S S S S S >   , S S S S S z   X S S S S S S S S 2 o   ) =.*.#.#.=.",
"=.*.%.&.*.}     = S S S S g         j S S S S S S S S S S A #         ; S S S S >   p S S S S S S S S S p   & S S S S S j     V S S S S S S S =     Q &.&.*.=.&.",
"=.=.#.&.=.`     > S S S S s       . B S S A S S S S S S S C #         ; S S S S >   p S S S S S S S S S l   # S S S S S V     k S S S S S S S >     I #.&.=.=.#.",
"#.&.=.*.$.Q .   u S S S S i       X A S S S S S S S S S S C #         ; S S S S >   p S S S S S S S S S g   . Z S S S S S .   x S S S S S S S ,     K =.*.#.&.=.",
"#.#.=.=.%.T     p S S S S u       & A S S S S S S S S S S C #         ; S S S S :   p S S S S S S A S S j   . B S S S S S #   l S S S S S S S p     H =.=.#.&.=.",
"=.=.#.#.=.L     s S S S S :       * S S S S S A S S S S S C #         ; S S S S >   p S S S S S S S S S N     N S S S S S %   d S S S S S S S p     F #.#.=.=.#.",
"=.=.#.&.=.K     l S S S S :       = S S S S S A S S S S S C #         ; S S S S >   p S S S S S S S S S V     j S S S S S &   s S S S S S S S s     F #.&.=.=.#.",
"#.&.=.=.#.H     l A S S S ;       - S S S S S A S S S S S C #         ; S S S S >   p S S S S S S S S S V     j S S S S S *   a S S S S S S S s     F =.*.#.#.=.",
"#.&.=.=.#.J     l S S S S :       = S S S S S S S S S S S C #         ; S S S S >   p S S S S S S S S S V     k S S S S S *   a S S S S S S S s     G =.*.#.&.=.",
"=.=.#.#.=.I     l A S S S :       = S S S S S S S S S S S C #         ; S S S S >   p S S S S S S S S S B     k S S S S S *   a S S S S S S S a     F #.&.=.=.#.",
"=.*.&.&.=.I     s S S S S ,       * A S S S A S S S S S S C #         ; S S S S >   p S S S S S S S S A N     N S S S S S %   f S S S S S S S p     G #.&.=.*.&.",
"#.#.=.=.#.U     p S S S S u       % A S S S S S S S S S S C #         ; S S S S >   p S S S S S S S S S v   . V S S S S A #   f S S S S S S S u     J =.*.#.#.=.",
"&.&.*.*.&.!     u S S S S a       X Z S S S S S S S S S S C #         ; S S S S >   p S S S S S S S S S g   X A S S S S A . . g S A S S S S S >     K *.*.&.&.*.",
"=.=.#.#.=.]     > A S S S l       . N S S S S S S S S S S C #         ; S S S S >   p S S S S S A S S S s   $ S S S A S B     m S S S S S S S -     T #.&.=.=.#.",
"*.*.&.*.*. .o   = S S S S j         k S S S S S S S S S S C #         ; S S S S >   p S S S S S S S S S u   - S S S S S j     V S S S S S S S &     ! &.&.*.*.*.",
"#.#.=.=.#.X.O   X A S S S B O o     f S S S S S S S S S S C #         ; S S S S >   p S S S S S S S S S -   u S S S S S z   X S S S S S S S A X     _ =.*.#.#.=.",
"*.&.&.*.*.&.5     B S S S A %       < S S S S S S S S S S A #         ; S S S S :   a S S S S S S S S A $   f S S S S S i   = S S S S S S S V     o } *.&.*.&.&.",
"=.=.#.&.=.=.w     x S S S S :       * S S S S S S S S S S C #         ; S S S S >   a S S S S S S S S n     k S S S S S ;   u S S S S S S S c     + $.#.&.=.=.#.",
"&.&.*.&.&.*.U     s S S S S s       . C S S S S S S S S S C #       o ; S S S S >   a S S S S S S S S f   $ Z S S S S Z X   f S S S S S S S s     6 %.*.*.&.&.*.",
"#.#.=.=.#.#.`     ; S S S S k         x S S S S S S S S S C #         ; S S S S ;   a S S S S S S S S :   ; S S S S S n o   k S S S S S S S >     e #.=.=.#.#.=.",
"=.=.#.&.=.=.X.o   X A S S S A #       , S S S S S S S S S C #         ; S S S S > o p S S S S S S S A X o s S S S S S s   $ Z S S S S S S A %     U =.$.&.=.=.&.",
"=.=.#.&.=.=.#.8     b S S S S <       # C S S S S S S S S C 1         ; S S S S >   p S S S S S S S x   o V S S S S S =   > S S S S S S S m       ' =.#.&.=.=.#.",
"#.&.=.*.#.&.=.I     i S S S S v       o f S S S S S S S S C # o       ; S S S S >   p S S S S S S S :   - S S S S S Z .   l S S S S S S A f     O O.&.=.*.#.#.=.",
"#.#.=.=.#.#.=.]     & A S S S A %       * S S S S S S S S C #         ; S S S S >   p S S S S S S B X . s S S S S S l   . B S S S S S S S ;     9 #.#.=.*.#.&.=.",
"=.=.#.&.=.=.#.&.6   . k S S S S d o       v S S S S S S S C #       o ; S S S S >   p S S S S S S s   $ Z S S S S S :   = S S S S S S S V .     K =.=.#.&.=.=.#.",
"=.=.#.#.=.=.#.&.T     i S S S S C #       - S S S S S S S C #         ; S S S S >   p S S S S S Z X . p S S S S S N .   l S S S S S S S l     . ] =.=.#.&.=.=.#.",
"#.&.=.=.#.&.=.*.} o   X C S S S S <       o c S S S S S S C #         = C C C C ;   p S S S S S p   X V S S S S S p   X Z S S S S S S A =     7 *.#.&.=.*.#.#.=.",
"#.&.=.=.#.&.=.*.$.q     s S S S S B #       & A S S S S S C # o       o $ # # $ .   p S S S S B X   s S S S S S A X . i S S S S S S S k       I =.#.&.=.*.#.&.=.",
"=.=.#.&.=.*.#.&.=.(     % A S S S S d         p S S S S S C # o       o             p S S S S ; . $ V S S S S S l   . N S S S S S S S >     o { #.=.=.#.&.=.=.#.",
"=.=.&.&.=.*.#.*.=.$.6   o f S S S S C %       o x S S S S A i > > , > > , > , , , , j S S S s .   x S S S S S A $   , S S S S S S S V .     q #.&.=.*.#.&.=.=.#.",
"#.#.=.*.#.&.=.*.#.*./   o $ C S S S S b .       # m S S S S S S S A S S S S S A S S S S S g .   , S S S S S S p   . m S S S S S S A ,       ^ =.=.#.&.=.*.#.#.=.",
"&.&.*.*.&.&.*.&.&.*.#.7     a S S S S S s o o     $ B S S S S S S S S S S S S S S S S S M #   & V S S S S A B # o < S S S S S S S M . o   7 #.*.*.&.&.*.&.&.&.*.",
"=.=.#.#.=.=.#.&.=.&.#.^     X B S S S S S ; o       % B S S S S S S S S S S S S S S S v #   # M S S S S S S ,   X N S S S S S S S :       Q =.#.#.=.=.#.&.=.=.#.",
"*.*.&.&.*.*.&.&.*.&.&.&.y     : S S S S S C =         # c S S S S S S S S S S S S S d O   . b S S S S S S c     a S S S S S S S h       6 *.*.&.&.*.*.&.&.*.*.&.",
"#.#.=.=.#.&.=.*.#.*.=.&.} @     s S S S S S C =         o i B S S S S S S S S S M -     # b S S S S S S V #   * Z S S S S S S B $     o ` #.#.=.=.#.&.=.*.#.#.=.",
"*.&.&.*.&.*.&.&.*.*.&.&.*.R     o b S S S S S C ,           # a M A S S S m f = o     % M S S S S S S C -   # M S S S S S S S :       D &.*.*.&.*.*.&.&.&.*.*.&.",
"=.=.#.#.=.=.#.&.=.&.#.*.=.#.q     $ V S S S S S S d X             $ * * # o o       , A S S S S S S S < o   d S S S S S S S s       @ X.#.=.=.#.#.=.=.#.&.=.=.#.",
"&.&.*.*.&.*.*.*.&.&.*.&.&.*.O.@     = V S S S S S S M : .               o       - b S S S S S S S S d     > A S S S S S S v .       ^ *.*.&.&.*.&.&.&.*.&.&.*.*.",
"#.#.=.=.#.#.=.*.#.*.=.&.#.*.=.] +     ; C S S S S S S S B i * .         # & p M S S S S S S S S A d     - C S S S S S S N $       J #.=.=.#.#.=.=.#.&.=.=.#.#.=.",
"=.=.#.*.=.*.#.&.=.*.#.*.=.*.#.*._ O     * C S S S S S S S A S B M v v M C A S S S S S S S S A A a     - V S S S S S S k #       0 &.*.&.&.*.*.#.&.=.=.&.&.=.=.#.",
"=.=.#.#.=.=.#.&.=.&.#.*.=.&.#.=.=.R       % B S S S S S S S S S S S S S S S S S S S S S S A A ,     - C S S S S S S k #       8 X.*.=.#.#.=.=.#.#.=.=.#.&.=.=.#.",
"#.&.=.*.&.&.=.*.&.&.=.&.&.&.=.&.&.*.Q o     $ c S S S S S S S S S S S S S S S S S S S S S M &     > C S S S S S S x X   o   6 @.=.&.&.*.=.&.&.=.=.#.#.=.*.#.&.=.",
"#.#.=.=.#.#.=.=.#.*.=.&.#.*.=.#.#.=.=.! 2       < B S S S S S S S S S S S S S S S S S V i X   X d S S S S S S V u       o 0 } *.=.#.#.=.=.#.#.=.=.#.&.=.=.#.#.=.",
"=.=.#.&.=.=.#.&.=.&.#.=.=.&.#.=.=.&.#.=. .5       # a C S A A S S S S S A S S S S B a #     = N S S A S S V d #       o F %.=.&.#.=.=.&.#.=.=.&.#.=.*.#.&.=.=.#.",
"=.=.#.#.=.=.#.&.=.&.#.*.=.&.#.=.=.%.#.=.=.O.F         # < M A S S S S S S S C z , o   o X a N v z d i , - X         3 ^ #.*.=.&.#.=.=.#.#.=.=.#.&.=.=.#.&.=.=.#.",
"#.#.=.=.#.#.=.*.#.&.=.&.#.*.=.&.#.=.=.#.#.=.=.( 8           $ - < p p < > * .           .                     o o F  .&.=.&.#.*.=.#.#.=.=.#.#.=.=.#.&.=.=.#.#.=.",
"#.&.=.=.#.&.=.*.#.*.=.&.#.*.=.&.#.=.=.%.$.=.=.$.$./ q o       o                               .           O 6 Y o.&.#.*.=.&.#.*.=.&.#.=.=.&.#.=.=.#.&.=.*.#.&.=.",
"=.=.#.&.=.*.#.&.=.&.#.*.=.&.#.=.=.#.#.=.=.&.#.=.=.#.#.| Y 8 O         o       O + 2 5 9 w y H L I R / ) ` X.=.&.#.*.=.&.#.*.=.&.#.=.=.#.#.=.=.#.#.=.*.#.&.=.=.#.",
"=.=.#.&.=.=.#.&.=.*.#.=.=.&.#.=.=.&.#.=.=.%.#.=.=.#.*.=.=.#.@.[ Q U R ! ( ] @.%.#.#.=.=.#.%.=.=.#.&.=.&.#.*.=.&.#.=.=.&.#.*.=.*.#.=.=.#.#.=.=.#.&.=.*.#.&.=.=.#."
};
