/* XPM */
static char *_669832529839[] = {
/* columns rows colors chars-per-pixel */
"106 106 21 1 ",
"  c black",
". c #000102",
"X c #010303",
"o c #010405",
"O c #2B1C0B",
"+ c #211515",
"@ c #281D1D",
"# c #3F260C",
"$ c #563310",
"% c #412724",
"& c #4E3634",
"* c #613834",
"= c #7C4712",
"- c #68403C",
"; c #6E4744",
": c #754F4C",
"> c #804B16",
", c #935517",
"< c #A75F18",
"1 c #BA6919",
"2 c None",
/* pixels */
"2222222222222222222222222222222222222222222222222222222222222222222222222222222222222222222222222222222222",
"2222222222222222222222222222222222222222222222222222222222222222222222222222222222222222222222222222222222",
"2222222222222222222222222222222222222222222222222222222222222222222222222222222222222222222222222222222222",
"22222222222222222222222222222222222oooooooooooooooooo22222222222222222222222222222222222222222222222222222",
"22222222222222222222222222222222222++oo++++++++++oo++22222222222222222222222222222222222222222222222222222",
"2222222222222222222222222222222******oo**********oo**oooo2222222222222222222222222222222222222222222222222",
"2222222222222222222222222222222**--**oo******--**oo**++++2222222222222222222222222222222222222222222222222",
"222222222222222222222222222oooo**::**oo******::**oo******oooo222222222222222222222222222222222222222222222",
"222222222222222222222222222++@@%%::**oo**--**::**oo****%%++++222222222222222222222222222222222222222222222",
"22222222222222222222222oooo**::oo::**oo**::**::**oo****oo****oooo22222222222222222222222222222222222222222",
"22222222222222222222222oo@@**;;++&&%%oo%%&&%%&&%%oo%%%%++**--++oo22222222222222222222222222222222222222222",
"222222222222222222222oooo::******oooooooooooooooooooooo****::**oooo222222222222222222222222222222222222222",
"222222222222222222222++++&&****%%ooXXXXXXXXXXXXXXXXXXoo%%**;;%%++@@222222222222222222222222222222222222222",
"2222222222222222222oo****oo****oooo                  oooo****oo**::oo222222222222>>>>>>>>>>222222222222222",
"2222222222222222222++--**++%%%%XXXX                  XXXX%%%%++**;;++222222222222>>,,,,,,>>222222222222222",
"22222222222222222oo**::****oooo                          oooo********oo2222oo>>>>>>111111>>>>2222222222222",
"22222222222222222++%%;;%%%%XXXX                          XXXX%%%%**%%@@2222OO>>,,>>111111>>>>2222222222222",
"222222222222222oo**oo**oooo                                  oooo**oo::oooo>>>>11>>111111>>>>>>>>222222222",
"222222222222222@@**++%%XXXX                                  XXXX%%oo&&OOOO>>,,11>>111111>>,,,,>>222222222",
"2222222222222oo::****oo                                          oooooo>>>>>>1111>>111111>>1111>>>>2222222",
"2222222222222++&&%%%%XX                                          XXooOO,,,,>>1111>>111111>>1111>>>>2222222",
"22222222222oo**oooooo                                              oo>>1111>>1111>>111111>>1111>>>>2222222",
"22222222222oo**++++oo                                              oo>>1111>>1111>>111111>>1111>>>>2222222",
"22222222222oo******oo                                              oo>>1111>>1111>>111111>>1111>>>>2222222",
"22222222222oo**--**oo                                              oo>>1111>>1111>>111111>>1111>>>>2222222",
"22222222222oo**::**oo                                              oo>>1111>>1111>>111111>>1111>>>>2222222",
"22222222222oo%%;;**oo                                              oo>>1111>>1111>>111111>>1111>>>>2222222",
"22222222222oooo****oo                                              oo>>1111>>1111>>111111>>1111>>>>2222222",
"22222222222oo++%%%%oo                                              oo>>1111>>1111>>111111>>1111>>>>2222222",
"22222222222oo**oooooo                                              oo>>1111>>1111>>111111>>1111>>>>2222222",
"22222222222oo**++++oo                                              oo>>1111>>1111>>111111>>1111>>>>2222222",
"22222222222oo******oo                                              oo>>1111>>1111>>111111>>1111>>>>2222222",
"22222222222oo**--**oo                                              oo>>1111>>1111>>111111>>1111>>>>2222222",
"22222222222oo**::**oo                                              oo>>1111>>1111>>111111>>1111>>>>2222222",
"22222222222oo%%&&%%oo                                              oo>>1111>>1111>>111111>>1111>>>>2222222",
"22222222222oooooooooo                                              oo>>1111>>1111>>111111>>1111>>>>2222222",
"22222222222oo@@++++oo                                              oo$$1111>>1111>>111111>>1111>>>>2222222",
"22222222222oo::****oo                                              oooo1111>>1111>>111111>>1111>>>>2222222",
"22222222222oo;;--**oo                                              oooo==11>>1111>>111111>>1111>>>>2222222",
"22222222222oo**::**oo                                              oooooo11>>1111>>111111>>1111>>>>2222222",
"22222222222oo**;;**oo                                              oooooo==>>1111>>111111>>1111>>>>2222222",
"22222222222oo******oo                                              oooooooo>>1111>>111111>>1111>>>>2222222",
"22222222222oo**%%%%oo                                              oooo####>>1111>>111111>>1111>>>>2222222",
"22222222222oo**oooooo                                              oooo1111>>1111>>111111>>1111>>>>2222222",
"22222222222oo%%@@++oo                                              ooOO1111>>1111>>111111>>1111>>>>2222222",
"22222222222oooo::**oo                                              oo>>1111>>1111>>111111>>1111>>>>2222222",
"22222222222oo++;;--oo                                              oo>>1111>>1111>>111111>>1111>>>>2222222",
"22222222222oo****::oo                                              oo>>1111>>1111>>111111>>1111>>>>2222222",
"22222222222oo****;;oo                                              oo>>1111>>1111>>111111>>1111>>>>2222222",
"22222222222oo******oo                                              oo>>1111>>1111>>111111>>1111>>>>2222222",
"22222222222oo%%%%**oo                                              oo>>1111>>1111>>111111>>1111>>>>2222222",
"22222222222oooooo**oo                                              oo>>1111>>1111>>111111>>1111>>>>2222222",
"22222222222oo++@@%%oo                                              oo>>1111>>1111>>111111>>1111>>>>2222222",
"22222222222oo**::oooo                                              oo>>1111>>1111>>111111>>1111>>>>2222222",
"22222222222oo**;;++oo                                              oo>>1111>>1111>>111111>>1111>>>>2222222",
"22222222222oo******oo                                              oo>>1111>>1111>>111111>>1111>>>>2222222",
"22222222222oo******oo                                              oo>>1111>>1111>>111111>>1111>>>>2222222",
"22222222222oo******oo                                              oo>>1111>>1111>>111111>>1111>>>>2222222",
"22222222222oo%%%%**oo                                              oo>>1111>>1111>>111111>>1111>>>>2222222",
"22222222222oooooo**oo                                              oo>>1111>>1111>>111111>>1111>>>>2222222",
"22222222222oo++++%%oo                                              oo>>1111>>1111>>111111>>1111>>>>2222222",
"22222222222oo****oooo                                              oo>>1111>>1111>>111111>>1111>>>>2222222",
"22222222222oo****++oo                                              oo>>1111>>1111>>1111==$$1111>>>>2222222",
"22222222222oo******oo                                              oo>>1111>>1111>>1111oooo1111>>>>2222222",
"22222222222oo******oo                                              oo>>1111>>1111>>1111##oo==11>>>>2222222",
"22222222222oo******oo                                              oo>>1111>>1111>>111111oooo11>>>>2222222",
"22222222222oo%%%%%%oo                                              oo>>1111>>1111>>111111oo##11>>>>2222222",
"22222222222oooooooooo                                              oo>>1111>>1111>>111111oo1111>>>>2222222",
"22222222222oo++++++oo                                              oo>>1111>>1111>>1111==oo1111>>>>2222222",
"22222222222oo******oo                                              oo>>1111>>1111>>1111oooo1111>>>>2222222",
"22222222222oo******oo                                              oo>>1111>>1111>>11==##OO==11>>>>2222222",
"22222222222oo******oo                                              oo>>1111>>1111>>11oo11>>oo11>>>>2222222",
"22222222222oo--****oo                                              oo>>1111>>1111>>11oo11>>oo11>>>>2222222",
"22222222222oo::****oo                                              oo>>1111>>1111>>11oo11>>oo11>>>>2222222",
"22222222222oo::%%%%oo                                              oo>>1111>>1111>>11##==$$##11>>>>2222222",
"22222222222oo::oooooo                                              oo>>1111>>1111>>1111oooo1111>>>>2222222",
"22222222222oo&&++++oo                                              oo$$1111>>1111>>1111##OO1111>>>>2222222",
"22222222222oooo****oo                                              oooo1111>>1111>>111111>>1111>>>>2222222",
"22222222222oo++****oo                                              oooo==11>>1111>>111111>>1111>>>>2222222",
"22222222222oo******oo                                              oooooo11>>1111>>111111>>1111>>>>2222222",
"22222222222oo****--oo                                              oooooo==>>1111>>111111>>1111>>>>2222222",
"22222222222oo****::oo                                              oooooooo>>1111>>111111>>1111>>>>2222222",
"22222222222oo%%%%::oo                                              oooo####>>1111>>111111>>1111>>>>2222222",
"22222222222oooooo::oo                                              oooo1111>>1111>>111111>>1111>>>>2222222",
"22222222222oo++++&&oo                                              ooOO1111>>1111>>111111>>1111>>>>2222222",
"22222222222oo****oooo                                              oo>>1111>>1111>>111111>>1111>>>>2222222",
"22222222222oo****++oo                                              oo>>1111>>1111>>111111>>1111>>>>2222222",
"22222222222oo******oo                                              oo>>1111>>1111>>111111>>1111>>>>2222222",
"22222222222oo**--**oo                                              oo>>1111>>1111>>111111>>1111>>>>2222222",
"22222222222oo**::**oo                                              oo>>1111>>1111>>111111>>1111>>>>2222222",
"22222222222oo%%&&%%oo        ..................................    oo>>1111>>1111>>111111>>1111>>>>2222222",
"22222222222oooooooooo        oooooooooooooooooooooooooooooooooo    oo>>1111>>1111>>111111>>1111>>>>2222222",
"22222222222oo++++++oo........++++++++++@@@@@@@@++oooo++++++@@++....oo>>1111>>1111>>111111>>1111>>>>2222222",
"22222222222oo******oooooooooo**********::::::::**oooo******::**oooooo>>1111>>1111>>111111>>1111>>>>2222222",
"22222222222oo******oooooooo++******----::;;;;::--++++%%%%**::**oo++oo>>1111>>1111>>111111>>1111>>>>2222222",
"22222222222oo******oooooooo********::::::****::::****oooo**::**oo**oo>>1111>>1111>>111111>>1111>>>>2222222",
"22222222222oo%%****oo++++++%%%%%%%%&&&&&&%%**;;::--**++++%%&&**oo--oo>>1111>>1111>>111111>>1111>>>>2222222",
"22222222222oooo****oo******oooooooooooooooo****::::******oooo**oo::oo>>1111>>1111>>111111>>1111>>>>2222222",
"22222222222oo@@%%%%oo**--**@@++++++++++++++%%%%&&&&%%%%%%oo++%%oo;;oo>>1111>>1111>>111111>>1111>>>>2222222",
"22222222222oo::oooooo**::**::**************oooooooooooooooo**oooo**oo>>1111>>1111>>111111>>1111>>>>2222222",
"22222222222oo;;++++oo**;;**;;**--**--******++++++++++++++++%%oooo%%oo>>1111>>1111>>111111>>1111>>>>2222222",
"22222222222oo******oo**********::**::**********************oooooooooo>>1111>>1111>>111111>>1111>>>>2222222",
"22222222222oo--****oo%%%%%%%%%%&&%%&&%%%%%%%%%%%%%%%%%%%%%%oooooooooo>><<11>>1111>>111111>>1111>>>>2222222",
"22222222222oo::****oooooooooooooooooooooooooooooooooooooooooooooooooo>>>>11>>1111>>111111>>1111>>>>2222222",
"22222222222oo&&%%%%oooooooooooooooooooooooooooooooooooooooooooooooooo$$$$<<>>1111>>111111>>1111>>>>2222222",
"22222222222oooooooooooooooooooooooooooooooooooooooooooooooooooooooooooooo>>>>1111>>111111>>1111>>>>2222222"
};
